G04*
G04 #@! TF.GenerationSoftware,Altium Limited,Altium Designer,25.8.1 (18)*
G04*
G04 Layer_Color=2752767*
%FSLAX44Y44*%
%MOMM*%
G71*
G04*
G04 #@! TF.SameCoordinates,556ADD39-D365-48E2-8C1B-80F4183F4835*
G04*
G04*
G04 #@! TF.FilePolarity,Positive*
G04*
G01*
G75*
%ADD13C,0.1270*%
%ADD14C,0.1693*%
D13*
X372110Y326390D02*
Y336550D01*
X382270D01*
Y326390D01*
X372110D01*
X367030Y328930D02*
Y339090D01*
X377190D01*
Y328930D01*
X367030D01*
Y334010D02*
Y344170D01*
X377190D01*
Y334010D01*
X367030D01*
X369570Y336550D02*
Y346710D01*
X379730D01*
Y336550D01*
X369570D01*
X373380D02*
Y346710D01*
X383540D01*
Y336550D01*
X373380D01*
X392430Y363220D02*
Y373380D01*
X402590D01*
Y363220D01*
X392430D01*
X386080Y365760D02*
Y375920D01*
X396240D01*
Y365760D01*
X386080D01*
X384810Y370840D02*
Y381000D01*
X394970D01*
Y370840D01*
X384810D01*
X387350Y374650D02*
Y384810D01*
X397510D01*
Y374650D01*
X387350D01*
X392430D02*
Y384810D01*
X402590D01*
Y374650D01*
X392430D01*
X374650Y402590D02*
Y412750D01*
X384810D01*
Y402590D01*
X374650D01*
X368300D02*
Y412750D01*
X378460D01*
Y402590D01*
X368300D01*
X365760Y407670D02*
Y417830D01*
X375920D01*
Y407670D01*
X365760D01*
X368300Y412750D02*
Y422910D01*
X378460D01*
Y412750D01*
X368300D01*
X373380D02*
Y422910D01*
X383540D01*
Y412750D01*
X373380D01*
X372110Y431800D02*
Y441960D01*
X382270D01*
Y431800D01*
X372110D01*
Y426720D02*
Y436880D01*
X382270D01*
Y426720D01*
X372110D01*
X361950Y436880D02*
Y447040D01*
X372110D01*
Y436880D01*
X361950D01*
X364490Y431800D02*
Y441960D01*
X374650D01*
Y431800D01*
X364490D01*
X368300Y436880D02*
Y447040D01*
X378460D01*
Y436880D01*
X368300D01*
X360680Y443230D02*
Y453390D01*
X370840D01*
Y443230D01*
X360680D01*
X364490Y445770D02*
Y455930D01*
X374650D01*
Y445770D01*
X364490D01*
X369570Y448310D02*
Y458470D01*
X379730D01*
Y448310D01*
X369570D01*
X368300Y441960D02*
Y452120D01*
X378460D01*
Y441960D01*
X368300D01*
X373380Y436880D02*
Y447040D01*
X383540D01*
Y436880D01*
X373380D01*
Y440690D02*
Y450850D01*
X383540D01*
Y440690D01*
X373380D01*
Y444500D02*
Y454660D01*
X383540D01*
Y444500D01*
X373380D01*
X372110Y453390D02*
Y463550D01*
X382270D01*
Y453390D01*
X372110D01*
X367030Y454660D02*
Y464820D01*
X377190D01*
Y454660D01*
X367030D01*
X365760Y459740D02*
Y469900D01*
X375920D01*
Y459740D01*
X365760D01*
X368300Y464820D02*
Y474980D01*
X378460D01*
Y464820D01*
X368300D01*
X373380Y466090D02*
Y476250D01*
X383540D01*
Y466090D01*
X373380D01*
X370840Y472440D02*
Y482600D01*
X381000D01*
Y472440D01*
X370840D01*
X365760Y474980D02*
Y485140D01*
X375920D01*
Y474980D01*
X365760D01*
Y480060D02*
Y490220D01*
X375920D01*
Y480060D01*
X365760D01*
X368300Y483870D02*
Y494030D01*
X378460D01*
Y483870D01*
X368300D01*
X373380Y485140D02*
Y495300D01*
X383540D01*
Y485140D01*
X373380D01*
Y491490D02*
Y501650D01*
X383540D01*
Y491490D01*
X373380D01*
X368300Y492760D02*
Y502920D01*
X378460D01*
Y492760D01*
X368300D01*
X365760Y497840D02*
Y508000D01*
X375920D01*
Y497840D01*
X365760D01*
X368300Y502920D02*
Y513080D01*
X378460D01*
Y502920D01*
X368300D01*
X373380Y504190D02*
Y514350D01*
X383540D01*
Y504190D01*
X373380D01*
Y510540D02*
Y520700D01*
X383540D01*
Y510540D01*
X373380D01*
X367030Y513080D02*
Y523240D01*
X377190D01*
Y513080D01*
X367030D01*
Y519430D02*
Y529590D01*
X377190D01*
Y519430D01*
X367030D01*
X372110Y521970D02*
Y532130D01*
X382270D01*
Y521970D01*
X372110D01*
X359410Y539750D02*
Y549910D01*
X369570D01*
Y539750D01*
X359410D01*
Y546100D02*
Y556260D01*
X369570D01*
Y546100D01*
X359410D01*
X364490Y551180D02*
Y561340D01*
X374650D01*
Y551180D01*
X364490D01*
X372110Y560070D02*
Y570230D01*
X382270D01*
Y560070D01*
X372110D01*
X370840Y551180D02*
Y561340D01*
X381000D01*
Y551180D01*
X370840D01*
X363220Y534670D02*
Y544830D01*
X373380D01*
Y534670D01*
X363220D01*
X370840Y528320D02*
Y538480D01*
X381000D01*
Y528320D01*
X370840D01*
X370721Y536448D02*
Y546608D01*
X380881D01*
Y536448D01*
X370721D01*
X365760Y542290D02*
Y552450D01*
X375920D01*
Y542290D01*
X365760D01*
X373380D02*
Y552450D01*
X383540D01*
Y542290D01*
X373380D01*
D14*
X313690Y280670D02*
G03*
X313690Y280670I-5080J0D01*
G01*
X308610Y358140D02*
G03*
X308610Y358140I-5080J0D01*
G01*
X309880Y421640D02*
G03*
X309880Y421640I-5080J0D01*
G01*
Y455930D02*
G03*
X309880Y455930I-5080J0D01*
G01*
Y528320D02*
G03*
X309880Y528320I-5080J0D01*
G01*
X308610Y567690D02*
G03*
X308610Y567690I-5080J0D01*
G01*
X270510Y601980D02*
G03*
X270510Y601980I-5080J0D01*
G01*
M02*
