G04*
G04 #@! TF.GenerationSoftware,Altium Limited,Altium Designer,25.8.1 (18)*
G04*
G04 Layer_Color=128*
%FSLAX44Y44*%
%MOMM*%
G71*
G04*
G04 #@! TF.SameCoordinates,556ADD39-D365-48E2-8C1B-80F4183F4835*
G04*
G04*
G04 #@! TF.FilePolarity,Positive*
G04*
G01*
G75*
%ADD13C,0.1270*%
D13*
X376428Y331470D02*
X377952D01*
X377190Y330708D02*
Y332232D01*
X371348Y334010D02*
X372872D01*
X372110Y333248D02*
Y334772D01*
X371348Y339090D02*
X372872D01*
X372110Y338328D02*
Y339852D01*
X373888Y341630D02*
X375412D01*
X374650Y340868D02*
Y342392D01*
X377698Y341630D02*
X379222D01*
X378460Y340868D02*
Y342392D01*
X396748Y368300D02*
X398272D01*
X397510Y367538D02*
Y369062D01*
X390398Y370840D02*
X391922D01*
X391160Y370078D02*
Y371602D01*
X389128Y375920D02*
X390652D01*
X389890Y375158D02*
Y376682D01*
X391668Y379730D02*
X393192D01*
X392430Y378968D02*
Y380492D01*
X396748Y379730D02*
X398272D01*
X397510Y378968D02*
Y380492D01*
X378968Y407670D02*
X380492D01*
X379730Y406908D02*
Y408432D01*
X378968Y407670D02*
X380492D01*
X379730Y406908D02*
Y408432D01*
X372618Y407670D02*
X374142D01*
X373380Y406908D02*
Y408432D01*
X370078Y412750D02*
X371602D01*
X370840Y411988D02*
Y413512D01*
X372618Y417830D02*
X374142D01*
X373380Y417068D02*
Y418592D01*
X377698Y417830D02*
X379222D01*
X378460Y417068D02*
Y418592D01*
X376428Y436880D02*
X377952D01*
X377190Y436118D02*
Y437642D01*
X376428Y431800D02*
X377952D01*
X377190Y431038D02*
Y432562D01*
X366268Y441960D02*
X367792D01*
X367030Y441198D02*
Y442722D01*
X368808Y436880D02*
X370332D01*
X369570Y436118D02*
Y437642D01*
X372618Y441960D02*
X374142D01*
X373380Y441198D02*
Y442722D01*
X364998Y448310D02*
X366522D01*
X365760Y447548D02*
Y449072D01*
X368808Y450850D02*
X370332D01*
X369570Y450088D02*
Y451612D01*
X373888Y453390D02*
X375412D01*
X374650Y452628D02*
Y454152D01*
X372618Y447040D02*
X374142D01*
X373380Y446278D02*
Y447802D01*
X377698Y441960D02*
X379222D01*
X378460Y441198D02*
Y442722D01*
X377698Y445770D02*
X379222D01*
X378460Y445008D02*
Y446532D01*
X377698Y449580D02*
X379222D01*
X378460Y448818D02*
Y450342D01*
X376428Y458470D02*
X377952D01*
X377190Y457708D02*
Y459232D01*
X371348Y459740D02*
X372872D01*
X372110Y458978D02*
Y460502D01*
X370078Y464820D02*
X371602D01*
X370840Y464058D02*
Y465582D01*
X372618Y469900D02*
X374142D01*
X373380Y469138D02*
Y470662D01*
X377698Y471170D02*
X379222D01*
X378460Y470408D02*
Y471932D01*
X375158Y477520D02*
X376682D01*
X375920Y476758D02*
Y478282D01*
X370078Y480060D02*
X371602D01*
X370840Y479298D02*
Y480822D01*
X370078Y485140D02*
X371602D01*
X370840Y484378D02*
Y485902D01*
X372618Y488950D02*
X374142D01*
X373380Y488188D02*
Y489712D01*
X377698Y490220D02*
X379222D01*
X378460Y489458D02*
Y490982D01*
X377698Y496570D02*
X379222D01*
X378460Y495808D02*
Y497332D01*
X372618Y497840D02*
X374142D01*
X373380Y497078D02*
Y498602D01*
X370078Y502920D02*
X371602D01*
X370840Y502158D02*
Y503682D01*
X372618Y508000D02*
X374142D01*
X373380Y507238D02*
Y508762D01*
X377698Y509270D02*
X379222D01*
X378460Y508508D02*
Y510032D01*
X377698Y515620D02*
X379222D01*
X378460Y514858D02*
Y516382D01*
X371348Y518160D02*
X372872D01*
X372110Y517398D02*
Y518922D01*
X371348Y524510D02*
X372872D01*
X372110Y523748D02*
Y525272D01*
X376428Y527050D02*
X377952D01*
X377190Y526288D02*
Y527812D01*
X363728Y544830D02*
X365252D01*
X364490Y544068D02*
Y545592D01*
X363728Y551180D02*
X365252D01*
X364490Y550418D02*
Y551942D01*
X368808Y556260D02*
X370332D01*
X369570Y555498D02*
Y557022D01*
X376428Y565150D02*
X377952D01*
X377190Y564388D02*
Y565912D01*
X375158Y556260D02*
X376682D01*
X375920Y555498D02*
Y557022D01*
X367538Y539750D02*
X369062D01*
X368300Y538988D02*
Y540512D01*
X375158Y533400D02*
X376682D01*
X375920Y532638D02*
Y534162D01*
X375039Y541528D02*
X376563D01*
X375801Y540766D02*
Y542290D01*
X370078Y547370D02*
X371602D01*
X370840Y546608D02*
Y548132D01*
X377698Y547370D02*
X379222D01*
X378460Y546608D02*
Y548132D01*
X307086Y280670D02*
X310134D01*
X308610Y279146D02*
Y282194D01*
X302006Y358140D02*
X305054D01*
X303530Y356616D02*
Y359664D01*
X303276Y421640D02*
X306324D01*
X304800Y420116D02*
Y423164D01*
X303276Y455930D02*
X306324D01*
X304800Y454406D02*
Y457454D01*
X303276Y528320D02*
X306324D01*
X304800Y526796D02*
Y529844D01*
X302006Y567690D02*
X305054D01*
X303530Y566166D02*
Y569214D01*
X263906Y601980D02*
X266954D01*
X265430Y600456D02*
Y603504D01*
M02*
