G04*
G04 #@! TF.GenerationSoftware,Altium Limited,Altium Designer,25.8.1 (18)*
G04*
G04 Layer_Physical_Order=2*
G04 Layer_Color=16711680*
%FSLAX44Y44*%
%MOMM*%
G71*
G04*
G04 #@! TF.SameCoordinates,556ADD39-D365-48E2-8C1B-80F4183F4835*
G04*
G04*
G04 #@! TF.FilePolarity,Positive*
G04*
G01*
G75*
%ADD11C,0.3048*%
%ADD12C,0.6096*%
G36*
X563053Y257367D02*
X257367D01*
Y612583D01*
X563053D01*
Y257367D01*
D02*
G37*
D11*
X377190Y331470D02*
D03*
X372110Y334010D02*
D03*
Y339090D02*
D03*
X374650Y341630D02*
D03*
X378460D02*
D03*
X397510Y368300D02*
D03*
X391160Y370840D02*
D03*
X389890Y375920D02*
D03*
X392430Y379730D02*
D03*
X397510D02*
D03*
X379730Y407670D02*
D03*
D03*
X373380D02*
D03*
X370840Y412750D02*
D03*
X373380Y417830D02*
D03*
X378460D02*
D03*
X377190Y436880D02*
D03*
Y431800D02*
D03*
X367030Y441960D02*
D03*
X369570Y436880D02*
D03*
X373380Y441960D02*
D03*
X365760Y448310D02*
D03*
X369570Y450850D02*
D03*
X374650Y453390D02*
D03*
X373380Y447040D02*
D03*
X378460Y441960D02*
D03*
Y445770D02*
D03*
Y449580D02*
D03*
X377190Y458470D02*
D03*
X372110Y459740D02*
D03*
X370840Y464820D02*
D03*
X373380Y469900D02*
D03*
X378460Y471170D02*
D03*
X375920Y477520D02*
D03*
X370840Y480060D02*
D03*
Y485140D02*
D03*
X373380Y488950D02*
D03*
X378460Y490220D02*
D03*
Y496570D02*
D03*
X373380Y497840D02*
D03*
X370840Y502920D02*
D03*
X373380Y508000D02*
D03*
X378460Y509270D02*
D03*
Y515620D02*
D03*
X372110Y518160D02*
D03*
Y524510D02*
D03*
X377190Y527050D02*
D03*
X364490Y544830D02*
D03*
Y551180D02*
D03*
X369570Y556260D02*
D03*
X377190Y565150D02*
D03*
X375920Y556260D02*
D03*
X368300Y539750D02*
D03*
X375920Y533400D02*
D03*
X375801Y541528D02*
D03*
X370840Y547370D02*
D03*
X378460D02*
D03*
D12*
X308610Y280670D02*
D03*
X303530Y358140D02*
D03*
X304800Y421640D02*
D03*
Y455930D02*
D03*
Y528320D02*
D03*
X303530Y567690D02*
D03*
X265430Y601980D02*
D03*
M02*
