G04*
G04 #@! TF.GenerationSoftware,Altium Limited,Altium Designer,25.8.1 (18)*
G04*
G04 Layer_Physical_Order=1*
G04 Layer_Color=255*
%FSLAX44Y44*%
%MOMM*%
G71*
G04*
G04 #@! TF.SameCoordinates,18E9D83D-3BE5-4939-AD94-C751608C10A1*
G04*
G04*
G04 #@! TF.FilePolarity,Positive*
G04*
G01*
G75*
%ADD10C,1.5240*%
%ADD11C,0.3048*%
%ADD12C,0.6096*%
G36*
X381000Y541528D02*
X385801D01*
Y541129D01*
X397101D01*
Y548130D01*
X406801D01*
Y541129D01*
X419100D01*
Y548130D01*
X428800D01*
Y541129D01*
X443111D01*
Y542127D01*
X441101D01*
Y548130D01*
X450301D01*
Y533128D01*
X441101D01*
Y539128D01*
X443111D01*
Y540129D01*
X428800D01*
Y533128D01*
X419100D01*
Y540129D01*
X406801D01*
Y533128D01*
X397101D01*
Y540129D01*
X385801D01*
Y539730D01*
X381000D01*
Y524601D01*
X375801D01*
X375008Y524443D01*
X374336Y523994D01*
X373886Y523322D01*
X373729Y522529D01*
Y520731D01*
X373886Y519938D01*
X374336Y519266D01*
X375008Y518816D01*
X375801Y518659D01*
X381000D01*
Y505601D01*
X375801D01*
X375008Y505444D01*
X374336Y504995D01*
X373886Y504322D01*
X373729Y503530D01*
Y501729D01*
X373886Y500936D01*
X374336Y500264D01*
X375008Y499815D01*
X375801Y499657D01*
X381000D01*
Y486602D01*
X375801D01*
X375008Y486445D01*
X374336Y485995D01*
X373886Y485323D01*
X373729Y484530D01*
Y482729D01*
X373886Y481937D01*
X374336Y481264D01*
X375008Y480815D01*
X375801Y480658D01*
X381000D01*
Y467601D01*
X375801D01*
X375008Y467443D01*
X374336Y466994D01*
X373886Y466321D01*
X373729Y465529D01*
Y463730D01*
X373886Y462938D01*
X374336Y462265D01*
X375008Y461816D01*
X375801Y461659D01*
X381000D01*
Y446530D01*
X385801D01*
Y446131D01*
X397101D01*
Y453131D01*
X406801D01*
Y446131D01*
X419100D01*
Y453131D01*
X428800D01*
Y446131D01*
X443111D01*
Y447129D01*
X441101D01*
Y453131D01*
X450301D01*
Y438130D01*
X441101D01*
Y444129D01*
X443111D01*
Y445130D01*
X428800D01*
Y438130D01*
X419100D01*
Y445130D01*
X406801D01*
Y438130D01*
X397101D01*
Y445130D01*
X385801D01*
Y444731D01*
X381000D01*
Y415203D01*
X375801D01*
X375008Y415045D01*
X374336Y414596D01*
X373886Y413924D01*
X373729Y413131D01*
Y411333D01*
X373886Y410540D01*
X374336Y409868D01*
X375008Y409419D01*
X375801Y409261D01*
X381000D01*
Y383540D01*
X399802D01*
Y377204D01*
X394802D01*
X394010Y377047D01*
X393337Y376598D01*
X392888Y375925D01*
X392731Y375133D01*
Y373332D01*
X392888Y372539D01*
X393337Y371867D01*
X394010Y371418D01*
X394802Y371260D01*
X399802D01*
Y365760D01*
X381000D01*
Y339203D01*
X375801D01*
X375008Y339046D01*
X374336Y338597D01*
X373886Y337924D01*
X373729Y337132D01*
Y335331D01*
X373886Y334538D01*
X374336Y333866D01*
X375008Y333417D01*
X375801Y333259D01*
X381000D01*
Y257367D01*
X257367D01*
Y612583D01*
X381000D01*
Y541528D01*
D02*
G37*
G36*
X450301Y514129D02*
X441101D01*
Y520129D01*
X443111D01*
Y521129D01*
X428800D01*
Y514129D01*
X419100D01*
Y521129D01*
X406801D01*
Y514129D01*
X397101D01*
Y521129D01*
X385801D01*
Y520731D01*
X375801D01*
Y522529D01*
X385801D01*
Y522130D01*
X397101D01*
Y529130D01*
X406801D01*
Y522130D01*
X419100D01*
Y529130D01*
X428800D01*
Y522130D01*
X443111D01*
Y523128D01*
X441101D01*
Y529130D01*
X450301D01*
Y514129D01*
D02*
G37*
G36*
Y495130D02*
X441101D01*
Y501129D01*
X443111D01*
Y502130D01*
X428800D01*
Y495130D01*
X419100D01*
Y502130D01*
X406801D01*
Y495130D01*
X397101D01*
Y502130D01*
X385801D01*
Y501729D01*
X375801D01*
Y503530D01*
X385801D01*
Y503128D01*
X397101D01*
Y510129D01*
X406801D01*
Y503128D01*
X419100D01*
Y510129D01*
X428800D01*
Y503128D01*
X443111D01*
Y504129D01*
X441101D01*
Y510129D01*
X450301D01*
Y495130D01*
D02*
G37*
G36*
Y476131D02*
X441101D01*
Y482130D01*
X443111D01*
Y483128D01*
X428800D01*
Y476131D01*
X419100D01*
Y483128D01*
X406801D01*
Y476131D01*
X397101D01*
Y483128D01*
X385801D01*
Y482729D01*
X375801D01*
Y484530D01*
X385801D01*
Y484129D01*
X397101D01*
Y491129D01*
X406801D01*
Y484129D01*
X419100D01*
Y491129D01*
X428800D01*
Y484129D01*
X443111D01*
Y485130D01*
X441101D01*
Y491129D01*
X450301D01*
Y476131D01*
D02*
G37*
G36*
Y457129D02*
X441101D01*
Y463128D01*
X443111D01*
Y464129D01*
X428800D01*
Y457129D01*
X419100D01*
Y464129D01*
X406801D01*
Y457129D01*
X397101D01*
Y464129D01*
X385801D01*
Y463730D01*
X375801D01*
Y465529D01*
X385801D01*
Y465130D01*
X397101D01*
Y472130D01*
X406801D01*
Y465130D01*
X419100D01*
Y472130D01*
X428800D01*
Y465130D01*
X443111D01*
Y466131D01*
X441101D01*
Y472130D01*
X450301D01*
Y457129D01*
D02*
G37*
G36*
Y404731D02*
X441101D01*
Y410731D01*
X443111D01*
Y411731D01*
X428800D01*
Y404731D01*
X419100D01*
Y411731D01*
X406801D01*
Y404731D01*
X397101D01*
Y411731D01*
X385801D01*
Y411333D01*
X375801D01*
Y413131D01*
X385801D01*
Y412732D01*
X397101D01*
Y419733D01*
X406801D01*
Y412732D01*
X419100D01*
Y419733D01*
X428800D01*
Y412732D01*
X443111D01*
Y413733D01*
X441101D01*
Y419733D01*
X450301D01*
Y404731D01*
D02*
G37*
G36*
X469301Y366733D02*
X460101D01*
Y372732D01*
X462112D01*
Y373731D01*
X447802D01*
Y366733D01*
X438102D01*
Y373731D01*
X425801D01*
Y366733D01*
X416100D01*
Y373731D01*
X404802D01*
Y373332D01*
X394802D01*
Y375133D01*
X404802D01*
Y374731D01*
X416100D01*
Y381731D01*
X425801D01*
Y374731D01*
X438102D01*
Y381731D01*
X447802D01*
Y374731D01*
X462112D01*
Y375732D01*
X460101D01*
Y381731D01*
X469301D01*
Y366733D01*
D02*
G37*
G36*
X450301Y328732D02*
X441101D01*
Y334731D01*
X443111D01*
Y335732D01*
X428800D01*
Y328732D01*
X419100D01*
Y335732D01*
X406801D01*
Y328732D01*
X397101D01*
Y335732D01*
X385801D01*
Y335331D01*
X375801D01*
Y337132D01*
X385801D01*
Y336733D01*
X397101D01*
Y343731D01*
X406801D01*
Y336733D01*
X419100D01*
Y343731D01*
X428800D01*
Y336733D01*
X443111D01*
Y337731D01*
X441101D01*
Y343731D01*
X450301D01*
Y328732D01*
D02*
G37*
D10*
X303530Y496570D02*
D03*
D11*
X377190Y331470D02*
D03*
X372110Y334010D02*
D03*
Y339090D02*
D03*
X374650Y341630D02*
D03*
X378460D02*
D03*
X397510Y368300D02*
D03*
X391160Y370840D02*
D03*
X389890Y375920D02*
D03*
X392430Y379730D02*
D03*
X397510D02*
D03*
X379730Y407670D02*
D03*
D03*
X373380D02*
D03*
X370840Y412750D02*
D03*
X373380Y417830D02*
D03*
X378460D02*
D03*
X377190Y436880D02*
D03*
Y431800D02*
D03*
X367030Y441960D02*
D03*
X369570Y436880D02*
D03*
X373380Y441960D02*
D03*
X365760Y448310D02*
D03*
X369570Y450850D02*
D03*
X374650Y453390D02*
D03*
X373380Y447040D02*
D03*
X378460Y441960D02*
D03*
Y445770D02*
D03*
Y449580D02*
D03*
X377190Y458470D02*
D03*
X372110Y459740D02*
D03*
X370840Y464820D02*
D03*
X373380Y469900D02*
D03*
X378460Y471170D02*
D03*
X375920Y477520D02*
D03*
X370840Y480060D02*
D03*
Y485140D02*
D03*
X373380Y488950D02*
D03*
X378460Y490220D02*
D03*
Y496570D02*
D03*
X373380Y497840D02*
D03*
X370840Y502920D02*
D03*
X373380Y508000D02*
D03*
X378460Y509270D02*
D03*
Y515620D02*
D03*
X372110Y518160D02*
D03*
Y524510D02*
D03*
X377190Y527050D02*
D03*
X364490Y544830D02*
D03*
Y551180D02*
D03*
X369570Y556260D02*
D03*
X377190Y565150D02*
D03*
X375920Y556260D02*
D03*
X368300Y539750D02*
D03*
X375920Y533400D02*
D03*
X375801Y541528D02*
D03*
X370840Y547370D02*
D03*
X378460D02*
D03*
D12*
X308610Y280670D02*
D03*
X303530Y358140D02*
D03*
X304800Y421640D02*
D03*
Y455930D02*
D03*
Y528320D02*
D03*
X303530Y567690D02*
D03*
X265430Y601980D02*
D03*
M02*
